<svg width="80" height="80" viewBox="0 0 80 80" fill="none" xmlns="http://www.w3.org/2000/svg">
<path d="M31.0856 22.5012C21.3488 22.5012 13.4268 30.3508 13.4268 40.0004C13.4268 49.65 21.3488 57.4996 31.0856 57.4996C40.8228 57.4996 48.7444 49.65 48.7444 40.0004C48.7444 30.3508 40.8228 22.5012 31.0856 22.5012Z" fill="white"/>
<path d="M59.1661 45.4688H53.4225C53.8597 43.716 54.0929 41.8852 54.0929 40.0008C54.0929 36.8044 53.4249 33.7608 52.2221 30.998H57.4509C58.3417 30.998 59.0629 30.282 59.0629 29.3992C59.0629 28.5168 58.3413 27.8012 57.4509 27.8012H50.5145C48.5733 24.7772 45.9333 22.2332 42.8205 20.3956H45.3485C46.2393 20.3956 46.9613 19.6812 46.9613 18.798C46.9613 17.9164 46.2393 17.2004 45.3485 17.2004H31.0857C18.3993 17.2004 8.07812 27.428 8.07812 40.0004C8.07812 52.5724 18.3993 62.7992 31.0857 62.7992H56.0461C56.9369 62.7992 57.6589 62.0848 57.6589 61.2012C57.6589 60.318 56.9369 59.6036 56.0461 59.6036H42.8205C44.6285 58.5372 46.2781 57.2332 47.7229 55.7324H55.8165C56.7077 55.7324 57.4293 55.0172 57.4293 54.1348C57.4293 53.2512 56.7077 52.5368 55.8165 52.5368H50.2929C51.1029 51.3224 51.7981 50.0272 52.3653 48.6656H59.1661C60.0577 48.6656 60.7789 47.9504 60.7789 47.0668C60.7789 46.1844 60.0577 45.4688 59.1661 45.4688ZM31.0857 59.6036C20.1773 59.6036 11.3037 50.8096 11.3037 40.0004C11.3037 29.1908 20.1773 20.3952 31.0857 20.3952C41.9933 20.3952 50.8677 29.1908 50.8677 40.0004C50.8677 50.8104 41.9933 59.6036 31.0857 59.6036Z" fill="white"/>
<path d="M40 41.1C40 41.6 39.775 41.95 39.325 42.15C39.1917 42.2 39.125 42.2833 39.125 42.4V48.5C39.125 48.8 39.0083 49.0583 38.775 49.275C38.5583 49.4917 38.3 49.6 38 49.6C37.7 49.6 37.4417 49.4917 37.225 49.275C37.0083 49.0583 36.9 48.8 36.9 48.5V47.35C36.9 47.25 36.875 47.1917 36.825 47.175C36.775 47.1417 36.7083 47.1667 36.625 47.25C36.0083 47.8833 35.25 48.4333 34.35 48.9C33.45 49.35 32.4 49.575 31.2 49.575C29.85 49.575 28.6417 49.325 27.575 48.825C26.5083 48.3083 25.6 47.6083 24.85 46.725C24.1167 45.8417 23.55 44.8333 23.15 43.7C22.7667 42.5667 22.575 41.375 22.575 40.125C22.575 38.625 22.8333 37.2917 23.35 36.125C23.8667 34.9417 24.5583 33.9417 25.425 33.125C26.2917 32.2917 27.2667 31.6583 28.35 31.225C29.4333 30.7917 30.5417 30.575 31.675 30.575C32.5583 30.575 33.4333 30.7167 34.3 31C35.1667 31.2833 35.9667 31.7167 36.7 32.3C37.6167 33.0167 38.075 33.7583 38.075 34.525C38.075 35.025 37.9 35.4417 37.55 35.775C37.2167 36.0917 36.825 36.25 36.375 36.25C35.875 36.25 35.4667 36.075 35.15 35.725C34.85 35.375 34.7 34.9833 34.7 34.55C34.7 34.35 34.7417 34.1417 34.825 33.925C34.8417 33.8917 34.85 33.8417 34.85 33.775C34.85 33.7083 34.8167 33.65 34.75 33.6C34.2667 33.2833 33.75 33.05 33.2 32.9C32.6667 32.75 32.125 32.675 31.575 32.675C30.7583 32.675 29.9583 32.8417 29.175 33.175C28.3917 33.4917 27.6833 33.9667 27.05 34.6C26.4167 35.2333 25.9083 36.0167 25.525 36.95C25.1583 37.8667 24.975 38.925 24.975 40.125C24.9917 41.5417 25.2583 42.8 25.775 43.9C26.3083 44.9833 27.0417 45.8417 27.975 46.475C28.9083 47.0917 29.975 47.4 31.175 47.4C33.7417 47.4 35.625 46.2167 36.825 43.85C36.875 43.75 36.9 43.6583 36.9 43.575V42.3C36.9 42.15 36.825 42.075 36.675 42.075C36.3083 42.0583 35.9333 42.0667 35.55 42.1C35.1833 42.1167 34.7417 42.1583 34.225 42.225C33.9083 42.2417 33.625 42.1417 33.375 41.925C33.1417 41.7083 33.025 41.4333 33.025 41.1C33.025 40.7667 33.1417 40.4917 33.375 40.275C33.625 40.0417 33.9083 39.9417 34.225 39.975C34.7083 40.025 35.125 40.0667 35.475 40.1C35.8417 40.1167 36.1833 40.125 36.5 40.125C36.8333 40.125 37.1833 40.1167 37.55 40.1C37.9167 40.0667 38.3333 40.025 38.8 39.975C39.1333 39.9417 39.4167 40.0417 39.65 40.275C39.8833 40.4917 40 40.7667 40 41.1Z" fill="#5522C3"/>
</svg>
